[FRAME]
key_frame=1
pkt_pts_time=0.000000
pkt_size=63420
[/FRAME]
[FRAME]
key_frame=0
pkt_pts_time=0.031656
pkt_size=5456
[/FRAME]
[FRAME]
key_frame=0
pkt_pts_time=0.098333
pkt_size=3879
[/FRAME]
[FRAME]
key_frame=0
pkt_pts_time=0.131656
pkt_size=2895
[/FRAME]
[FRAME]
key_frame=0
pkt_pts_time=0.165000
pkt_size=954
[/FRAME]
[FRAME]
key_frame=0
pkt_pts_time=0.198322
pkt_size=924
[/FRAME]
[FRAME]
key_frame=0
pkt_pts_time=0.231656
pkt_size=1655
[/FRAME]
[FRAME]
key_frame=0
pkt_pts_time=0.298333
pkt_size=1743
[/FRAME]
[FRAME]
key_frame=0
pkt_pts_time=0.331656
pkt_size=639
[/FRAME]
[FRAME]
key_frame=0
pkt_pts_time=0.365000
pkt_size=1581
[/FRAME]
[FRAME]
key_frame=0
pkt_pts_time=0.398322
pkt_size=2883
[/FRAME]
[FRAME]
key_frame=0
pkt_pts_time=0.431656
pkt_size=2342
[/FRAME]
[FRAME]
key_frame=0
pkt_pts_time=0.498333
pkt_size=2582
[/FRAME]
[FRAME]
key_frame=0
pkt_pts_time=0.531656
pkt_size=2058
[/FRAME]
[FRAME]
key_frame=0
pkt_pts_time=0.565000
pkt_size=1905
[/FRAME]
[FRAME]
key_frame=0
pkt_pts_time=0.598322
pkt_size=1860
[/FRAME]
[FRAME]
key_frame=0
pkt_pts_time=0.631656
pkt_size=1831
[/FRAME]
[FRAME]
key_frame=0
pkt_pts_time=0.698333
pkt_size=2220
[/FRAME]
[FRAME]
key_frame=0
pkt_pts_time=0.731656
pkt_size=1726
[/FRAME]
[FRAME]
key_frame=0
pkt_pts_time=0.765000
pkt_size=1759
[/FRAME]
[FRAME]
key_frame=0
pkt_pts_time=0.798322
pkt_size=1715
[/FRAME]
[FRAME]
key_frame=0
pkt_pts_time=0.831656
pkt_size=1687
[/FRAME]
[FRAME]
key_frame=0
pkt_pts_time=0.898333
pkt_size=1923
[/FRAME]
[FRAME]
key_frame=0
pkt_pts_time=0.931656
pkt_size=1739
[/FRAME]
[FRAME]
key_frame=0
pkt_pts_time=0.965000
pkt_size=1774
[/FRAME]
[FRAME]
key_frame=1
pkt_pts_time=0.998322
pkt_size=63439
[/FRAME]
[FRAME]
key_frame=0
pkt_pts_time=1.031656
pkt_size=5696
[/FRAME]
[FRAME]
key_frame=0
pkt_pts_time=1.098333
pkt_size=3782
[/FRAME]
[FRAME]
key_frame=0
pkt_pts_time=1.131656
pkt_size=2805
[/FRAME]
[FRAME]
key_frame=0
pkt_pts_time=1.165000
pkt_size=872
[/FRAME]
[FRAME]
key_frame=0
pkt_pts_time=1.198322
pkt_size=819
[/FRAME]
[FRAME]
key_frame=0
pkt_pts_time=1.231656
pkt_size=1562
[/FRAME]
[FRAME]
key_frame=0
pkt_pts_time=1.298333
pkt_size=1564
[/FRAME]
[FRAME]
key_frame=0
pkt_pts_time=1.331656
pkt_size=505
[/FRAME]
[FRAME]
key_frame=0
pkt_pts_time=1.365000
pkt_size=1451
[/FRAME]
[FRAME]
key_frame=0
pkt_pts_time=1.398322
pkt_size=2742
[/FRAME]
[FRAME]
key_frame=0
pkt_pts_time=1.431656
pkt_size=2332
[/FRAME]
[FRAME]
key_frame=0
pkt_pts_time=1.498333
pkt_size=2315
[/FRAME]
[FRAME]
key_frame=0
pkt_pts_time=1.531656
pkt_size=1889
[/FRAME]
[FRAME]
key_frame=0
pkt_pts_time=1.565000
pkt_size=2035
[/FRAME]
[FRAME]
key_frame=0
pkt_pts_time=1.598322
pkt_size=1863
[/FRAME]
[FRAME]
key_frame=0
pkt_pts_time=1.631656
pkt_size=1945
[/FRAME]
[FRAME]
key_frame=0
pkt_pts_time=1.698333
pkt_size=2128
[/FRAME]
[FRAME]
key_frame=0
pkt_pts_time=1.731656
pkt_size=1769
[/FRAME]
[FRAME]
key_frame=0
pkt_pts_time=1.765000
pkt_size=1804
[/FRAME]
[FRAME]
key_frame=0
pkt_pts_time=1.798322
pkt_size=1718
[/FRAME]
[FRAME]
key_frame=0
pkt_pts_time=1.831656
pkt_size=1674
[/FRAME]
[FRAME]
key_frame=0
pkt_pts_time=1.898333
pkt_size=1865
[/FRAME]
[FRAME]
key_frame=0
pkt_pts_time=1.931656
pkt_size=1676
[/FRAME]
[FRAME]
key_frame=0
pkt_pts_time=1.965000
pkt_size=1562
[/FRAME]
[FRAME]
key_frame=1
pkt_pts_time=1.998322
pkt_size=63502
[/FRAME]
[FRAME]
key_frame=0
pkt_pts_time=2.031656
pkt_size=5337
[/FRAME]
[FRAME]
key_frame=0
pkt_pts_time=2.098333
pkt_size=3539
[/FRAME]
[FRAME]
key_frame=0
pkt_pts_time=2.131656
pkt_size=2705
[/FRAME]
[FRAME]
key_frame=0
pkt_pts_time=2.165000
pkt_size=744
[/FRAME]
[FRAME]
key_frame=0
pkt_pts_time=2.198322
pkt_size=763
[/FRAME]
[FRAME]
key_frame=0
pkt_pts_time=2.231656
pkt_size=1455
[/FRAME]
[FRAME]
key_frame=0
pkt_pts_time=2.298333
pkt_size=1663
[/FRAME]
[FRAME]
key_frame=0
pkt_pts_time=2.331656
pkt_size=534
[/FRAME]
[FRAME]
key_frame=0
pkt_pts_time=2.365000
pkt_size=1564
[/FRAME]
[FRAME]
key_frame=0
pkt_pts_time=2.398322
pkt_size=2925
[/FRAME]
[FRAME]
key_frame=0
pkt_pts_time=2.431656
pkt_size=2301
[/FRAME]
[FRAME]
key_frame=0
pkt_pts_time=2.498333
pkt_size=2557
[/FRAME]
[FRAME]
key_frame=0
pkt_pts_time=2.531656
pkt_size=2101
[/FRAME]
[FRAME]
key_frame=0
pkt_pts_time=2.565000
pkt_size=1960
[/FRAME]
[FRAME]
key_frame=0
pkt_pts_time=2.598322
pkt_size=1846
[/FRAME]
[FRAME]
key_frame=0
pkt_pts_time=2.631656
pkt_size=1830
[/FRAME]
[FRAME]
key_frame=0
pkt_pts_time=2.698333
pkt_size=2070
[/FRAME]
[FRAME]
key_frame=0
pkt_pts_time=2.731656
pkt_size=1797
[/FRAME]
[FRAME]
key_frame=0
pkt_pts_time=2.765000
pkt_size=1774
[/FRAME]
[FRAME]
key_frame=0
pkt_pts_time=2.798322
pkt_size=1756
[/FRAME]
[FRAME]
key_frame=0
pkt_pts_time=2.831656
pkt_size=1708
[/FRAME]
[FRAME]
key_frame=0
pkt_pts_time=2.898333
pkt_size=1915
[/FRAME]
[FRAME]
key_frame=0
pkt_pts_time=2.931656
pkt_size=1713
[/FRAME]
[FRAME]
key_frame=0
pkt_pts_time=2.965000
pkt_size=1648
[/FRAME]
[FRAME]
key_frame=1
pkt_pts_time=2.998322
pkt_size=63401
[/FRAME]
[FRAME]
key_frame=0
pkt_pts_time=3.031656
pkt_size=5429
[/FRAME]
[FRAME]
key_frame=0
pkt_pts_time=3.098333
pkt_size=4382
[/FRAME]
[FRAME]
key_frame=0
pkt_pts_time=3.131656
pkt_size=3182
[/FRAME]
[FRAME]
key_frame=0
pkt_pts_time=3.165000
pkt_size=972
[/FRAME]
[FRAME]
key_frame=0
pkt_pts_time=3.198322
pkt_size=1056
[/FRAME]
[FRAME]
key_frame=0
pkt_pts_time=3.231656
pkt_size=1855
[/FRAME]
[FRAME]
key_frame=0
pkt_pts_time=3.298333
pkt_size=2015
[/FRAME]
[FRAME]
key_frame=0
pkt_pts_time=3.331656
pkt_size=681
[/FRAME]
[FRAME]
key_frame=0
pkt_pts_time=3.365000
pkt_size=1792
[/FRAME]
[FRAME]
key_frame=0
pkt_pts_time=3.398322
pkt_size=3198
[/FRAME]
[FRAME]
key_frame=0
pkt_pts_time=3.431656
pkt_size=2818
[/FRAME]
[FRAME]
key_frame=0
pkt_pts_time=3.498333
pkt_size=2938
[/FRAME]
[FRAME]
key_frame=0
pkt_pts_time=3.531656
pkt_size=2424
[/FRAME]
[FRAME]
key_frame=0
pkt_pts_time=3.565000
pkt_size=2403
[/FRAME]
[FRAME]
key_frame=0
pkt_pts_time=3.598322
pkt_size=2264
[/FRAME]
[FRAME]
key_frame=0
pkt_pts_time=3.631656
pkt_size=2154
[/FRAME]
[FRAME]
key_frame=0
pkt_pts_time=3.698333
pkt_size=2553
[/FRAME]
[FRAME]
key_frame=0
pkt_pts_time=3.731656
pkt_size=2174
[/FRAME]
[FRAME]
key_frame=0
pkt_pts_time=3.765000
pkt_size=2044
[/FRAME]
[FRAME]
key_frame=0
pkt_pts_time=3.798322
pkt_size=1966
[/FRAME]
[FRAME]
key_frame=0
pkt_pts_time=3.831656
pkt_size=2580
[/FRAME]
[FRAME]
key_frame=0
pkt_pts_time=3.898333
pkt_size=2556
[/FRAME]
[FRAME]
key_frame=0
pkt_pts_time=3.931656
pkt_size=1998
[/FRAME]
[FRAME]
key_frame=0
pkt_pts_time=3.965000
pkt_size=2543
[/FRAME]
[FRAME]
key_frame=1
pkt_pts_time=3.998322
pkt_size=63495
[/FRAME]
[FRAME]
key_frame=0
pkt_pts_time=4.031656
pkt_size=5661
[/FRAME]
[FRAME]
key_frame=0
pkt_pts_time=4.098333
pkt_size=4100
[/FRAME]
[FRAME]
key_frame=0
pkt_pts_time=4.131656
pkt_size=2873
[/FRAME]
[FRAME]
key_frame=0
pkt_pts_time=4.165000
pkt_size=945
[/FRAME]
[FRAME]
key_frame=0
pkt_pts_time=4.198322
pkt_size=971
[/FRAME]
[FRAME]
key_frame=0
pkt_pts_time=4.231656
pkt_size=1748
[/FRAME]
[FRAME]
key_frame=0
pkt_pts_time=4.296656
pkt_size=1868
[/FRAME]
[FRAME]
key_frame=0
pkt_pts_time=4.330000
pkt_size=600
[/FRAME]
[FRAME]
key_frame=0
pkt_pts_time=4.363322
pkt_size=1584
[/FRAME]
[FRAME]
key_frame=0
pkt_pts_time=4.396656
pkt_size=3044
[/FRAME]
[FRAME]
key_frame=0
pkt_pts_time=4.430000
pkt_size=2334
[/FRAME]
[FRAME]
key_frame=0
pkt_pts_time=4.496656
pkt_size=2697
[/FRAME]
[FRAME]
key_frame=0
pkt_pts_time=4.530000
pkt_size=2153
[/FRAME]
[FRAME]
key_frame=0
pkt_pts_time=4.563322
pkt_size=2097
[/FRAME]
[FRAME]
key_frame=0
pkt_pts_time=4.596656
pkt_size=1977
[/FRAME]
[FRAME]
key_frame=0
pkt_pts_time=4.630000
pkt_size=1985
[/FRAME]
[FRAME]
key_frame=0
pkt_pts_time=4.696656
pkt_size=2418
[/FRAME]
[FRAME]
key_frame=0
pkt_pts_time=4.730000
pkt_size=2293
[/FRAME]
[FRAME]
key_frame=0
pkt_pts_time=4.763322
pkt_size=2083
[/FRAME]
[FRAME]
key_frame=0
pkt_pts_time=4.796656
pkt_size=2102
[/FRAME]
[FRAME]
key_frame=0
pkt_pts_time=4.830000
pkt_size=2140
[/FRAME]
[FRAME]
key_frame=0
pkt_pts_time=4.896656
pkt_size=2450
[/FRAME]
[FRAME]
key_frame=0
pkt_pts_time=4.930000
pkt_size=2021
[/FRAME]
[FRAME]
key_frame=0
pkt_pts_time=4.963322
pkt_size=2057
[/FRAME]
[FRAME]
key_frame=1
pkt_pts_time=4.996656
pkt_size=63213
[/FRAME]
[FRAME]
key_frame=0
pkt_pts_time=5.030000
pkt_size=5616
[/FRAME]
[FRAME]
key_frame=0
pkt_pts_time=5.096656
pkt_size=4126
[/FRAME]
[FRAME]
key_frame=0
pkt_pts_time=5.130000
pkt_size=3340
[/FRAME]
[FRAME]
key_frame=0
pkt_pts_time=5.163322
pkt_size=1148
[/FRAME]
[FRAME]
key_frame=0
pkt_pts_time=5.196656
pkt_size=1230
[/FRAME]
[FRAME]
key_frame=0
pkt_pts_time=5.230000
pkt_size=2022
[/FRAME]
[FRAME]
key_frame=0
pkt_pts_time=5.296656
pkt_size=2246
[/FRAME]
[FRAME]
key_frame=0
pkt_pts_time=5.330000
pkt_size=824
[/FRAME]
[FRAME]
key_frame=0
pkt_pts_time=5.363322
pkt_size=1913
[/FRAME]
[FRAME]
key_frame=0
pkt_pts_time=5.396656
pkt_size=3257
[/FRAME]
[FRAME]
key_frame=0
pkt_pts_time=5.430000
pkt_size=2531
[/FRAME]
[FRAME]
key_frame=0
pkt_pts_time=5.496656
pkt_size=2869
[/FRAME]
[FRAME]
key_frame=0
pkt_pts_time=5.530000
pkt_size=2241
[/FRAME]
[FRAME]
key_frame=0
pkt_pts_time=5.563322
pkt_size=2157
[/FRAME]
[FRAME]
key_frame=0
pkt_pts_time=5.596656
pkt_size=2090
[/FRAME]
[FRAME]
key_frame=0
pkt_pts_time=5.630000
pkt_size=2118
[/FRAME]
[FRAME]
key_frame=0
pkt_pts_time=5.696656
pkt_size=2578
[/FRAME]
[FRAME]
key_frame=0
pkt_pts_time=5.730000
pkt_size=2269
[/FRAME]
[FRAME]
key_frame=0
pkt_pts_time=5.763322
pkt_size=2147
[/FRAME]
[FRAME]
key_frame=0
pkt_pts_time=5.796656
pkt_size=2166
[/FRAME]
[FRAME]
key_frame=0
pkt_pts_time=5.830000
pkt_size=2150
[/FRAME]
[FRAME]
key_frame=0
pkt_pts_time=5.896656
pkt_size=2534
[/FRAME]
[FRAME]
key_frame=0
pkt_pts_time=5.930000
pkt_size=2123
[/FRAME]
[FRAME]
key_frame=0
pkt_pts_time=5.963322
pkt_size=2022
[/FRAME]
[FRAME]
key_frame=1
pkt_pts_time=5.996656
pkt_size=62901
[/FRAME]
[FRAME]
key_frame=0
pkt_pts_time=6.030000
pkt_size=5547
[/FRAME]
[FRAME]
key_frame=0
pkt_pts_time=6.096656
pkt_size=4176
[/FRAME]
[FRAME]
key_frame=0
pkt_pts_time=6.130000
pkt_size=3253
[/FRAME]
[FRAME]
key_frame=0
pkt_pts_time=6.163322
pkt_size=1024
[/FRAME]
[FRAME]
key_frame=0
pkt_pts_time=6.196656
pkt_size=982
[/FRAME]
[FRAME]
key_frame=0
pkt_pts_time=6.230000
pkt_size=1699
[/FRAME]
[FRAME]
key_frame=0
pkt_pts_time=6.296656
pkt_size=1922
[/FRAME]
[FRAME]
key_frame=0
pkt_pts_time=6.330000
pkt_size=689
[/FRAME]
[FRAME]
key_frame=0
pkt_pts_time=6.363322
pkt_size=1824
[/FRAME]
[FRAME]
key_frame=0
pkt_pts_time=6.396656
pkt_size=3122
[/FRAME]
[FRAME]
key_frame=0
pkt_pts_time=6.430000
pkt_size=2585
[/FRAME]
[FRAME]
key_frame=0
pkt_pts_time=6.496656
pkt_size=2726
[/FRAME]
[FRAME]
key_frame=0
pkt_pts_time=6.530000
pkt_size=2367
[/FRAME]
[FRAME]
key_frame=0
pkt_pts_time=6.563322
pkt_size=2139
[/FRAME]
[FRAME]
key_frame=0
pkt_pts_time=6.596656
pkt_size=2051
[/FRAME]
[FRAME]
key_frame=0
pkt_pts_time=6.630000
pkt_size=2088
[/FRAME]
[FRAME]
key_frame=0
pkt_pts_time=6.696656
pkt_size=2319
[/FRAME]
[FRAME]
key_frame=0
pkt_pts_time=6.730000
pkt_size=1826
[/FRAME]
[FRAME]
key_frame=0
pkt_pts_time=6.763322
pkt_size=1896
[/FRAME]
[FRAME]
key_frame=0
pkt_pts_time=6.796656
pkt_size=1875
[/FRAME]
[FRAME]
key_frame=0
pkt_pts_time=6.830000
pkt_size=2577
[/FRAME]
[FRAME]
key_frame=0
pkt_pts_time=6.896656
pkt_size=2445
[/FRAME]
[FRAME]
key_frame=0
pkt_pts_time=6.930000
pkt_size=1832
[/FRAME]
[FRAME]
key_frame=0
pkt_pts_time=6.963322
pkt_size=1836
[/FRAME]
[FRAME]
key_frame=1
pkt_pts_time=6.996656
pkt_size=62624
[/FRAME]
[FRAME]
key_frame=0
pkt_pts_time=7.030000
pkt_size=5348
[/FRAME]
[FRAME]
key_frame=0
pkt_pts_time=7.096656
pkt_size=3998
[/FRAME]
[FRAME]
key_frame=0
pkt_pts_time=7.130000
pkt_size=3014
[/FRAME]
[FRAME]
key_frame=0
pkt_pts_time=7.163322
pkt_size=935
[/FRAME]
[FRAME]
key_frame=0
pkt_pts_time=7.196656
pkt_size=988
[/FRAME]
[FRAME]
key_frame=0
pkt_pts_time=7.230000
pkt_size=1798
[/FRAME]
[FRAME]
key_frame=0
pkt_pts_time=7.296656
pkt_size=1816
[/FRAME]
[FRAME]
key_frame=0
pkt_pts_time=7.330000
pkt_size=706
[/FRAME]
[FRAME]
key_frame=0
pkt_pts_time=7.363322
pkt_size=1637
[/FRAME]
[FRAME]
key_frame=0
pkt_pts_time=7.396656
pkt_size=3047
[/FRAME]
[FRAME]
key_frame=0
pkt_pts_time=7.430000
pkt_size=2511
[/FRAME]
[FRAME]
key_frame=0
pkt_pts_time=7.496656
pkt_size=2755
[/FRAME]
[FRAME]
key_frame=0
pkt_pts_time=7.530000
pkt_size=2285
[/FRAME]
[FRAME]
key_frame=0
pkt_pts_time=7.563322
pkt_size=2025
[/FRAME]
[FRAME]
key_frame=0
pkt_pts_time=7.596656
pkt_size=2047
[/FRAME]
[FRAME]
key_frame=0
pkt_pts_time=7.630000
pkt_size=2029
[/FRAME]
[FRAME]
key_frame=0
pkt_pts_time=7.696656
pkt_size=2696
[/FRAME]
[FRAME]
key_frame=0
pkt_pts_time=7.730000
pkt_size=2259
[/FRAME]
[FRAME]
key_frame=0
pkt_pts_time=7.763322
pkt_size=2290
[/FRAME]
[FRAME]
key_frame=0
pkt_pts_time=7.796656
pkt_size=2290
[/FRAME]
[FRAME]
key_frame=0
pkt_pts_time=7.830000
pkt_size=2304
[/FRAME]
[FRAME]
key_frame=0
pkt_pts_time=7.896656
pkt_size=2886
[/FRAME]
[FRAME]
key_frame=0
pkt_pts_time=7.930000
pkt_size=2339
[/FRAME]
[FRAME]
key_frame=0
pkt_pts_time=7.963322
pkt_size=2274
[/FRAME]
[FRAME]
key_frame=1
pkt_pts_time=7.996656
pkt_size=62524
[/FRAME]
[FRAME]
key_frame=0
pkt_pts_time=8.030000
pkt_size=5756
[/FRAME]
[FRAME]
key_frame=0
pkt_pts_time=8.096656
pkt_size=4450
[/FRAME]
[FRAME]
key_frame=0
pkt_pts_time=8.130000
pkt_size=3301
[/FRAME]
[FRAME]
key_frame=0
pkt_pts_time=8.163322
pkt_size=1285
[/FRAME]
[FRAME]
key_frame=0
pkt_pts_time=8.196656
pkt_size=1201
[/FRAME]
[FRAME]
key_frame=0
pkt_pts_time=8.230000
pkt_size=2742
[/FRAME]
[FRAME]
key_frame=0
pkt_pts_time=8.296656
pkt_size=3021
[/FRAME]
[FRAME]
key_frame=0
pkt_pts_time=8.330000
pkt_size=942
[/FRAME]
[FRAME]
key_frame=0
pkt_pts_time=8.363322
pkt_size=2177
[/FRAME]
[FRAME]
key_frame=0
pkt_pts_time=8.395000
pkt_size=3729
[/FRAME]
[FRAME]
key_frame=0
pkt_pts_time=8.428322
pkt_size=2824
[/FRAME]
[FRAME]
key_frame=0
pkt_pts_time=8.495000
pkt_size=3350
[/FRAME]
[FRAME]
key_frame=0
pkt_pts_time=8.528322
pkt_size=2696
[/FRAME]
[FRAME]
key_frame=0
pkt_pts_time=8.561656
pkt_size=2643
[/FRAME]
[FRAME]
key_frame=0
pkt_pts_time=8.595000
pkt_size=2533
[/FRAME]
[FRAME]
key_frame=0
pkt_pts_time=8.628322
pkt_size=2397
[/FRAME]
[FRAME]
key_frame=0
pkt_pts_time=8.695000
pkt_size=2985
[/FRAME]
[FRAME]
key_frame=0
pkt_pts_time=8.728322
pkt_size=2449
[/FRAME]
[FRAME]
key_frame=0
pkt_pts_time=8.761656
pkt_size=2476
[/FRAME]
[FRAME]
key_frame=0
pkt_pts_time=8.795000
pkt_size=2601
[/FRAME]
[FRAME]
key_frame=0
pkt_pts_time=8.828322
pkt_size=2431
[/FRAME]
[FRAME]
key_frame=0
pkt_pts_time=8.895000
pkt_size=2794
[/FRAME]
[FRAME]
key_frame=0
pkt_pts_time=8.928322
pkt_size=2260
[/FRAME]
[FRAME]
key_frame=0
pkt_pts_time=8.961656
pkt_size=2280
[/FRAME]
[FRAME]
key_frame=1
pkt_pts_time=8.995000
pkt_size=63447
[/FRAME]
[FRAME]
key_frame=0
pkt_pts_time=9.028322
pkt_size=5731
[/FRAME]
[FRAME]
key_frame=0
pkt_pts_time=9.095000
pkt_size=4078
[/FRAME]
[FRAME]
key_frame=0
pkt_pts_time=9.128322
pkt_size=3294
[/FRAME]
[FRAME]
key_frame=0
pkt_pts_time=9.161656
pkt_size=1038
[/FRAME]
[FRAME]
key_frame=0
pkt_pts_time=9.195000
pkt_size=1090
[/FRAME]
[FRAME]
key_frame=0
pkt_pts_time=9.228322
pkt_size=1875
[/FRAME]
[FRAME]
key_frame=0
pkt_pts_time=9.295000
pkt_size=2089
[/FRAME]
[FRAME]
key_frame=0
pkt_pts_time=9.328322
pkt_size=710
[/FRAME]
[FRAME]
key_frame=0
pkt_pts_time=9.361656
pkt_size=1849
[/FRAME]
[FRAME]
key_frame=0
pkt_pts_time=9.395000
pkt_size=3249
[/FRAME]
[FRAME]
key_frame=0
pkt_pts_time=9.428322
pkt_size=2592
[/FRAME]
[FRAME]
key_frame=0
pkt_pts_time=9.495000
pkt_size=2902
[/FRAME]
[FRAME]
key_frame=0
pkt_pts_time=9.528322
pkt_size=2385
[/FRAME]
[FRAME]
key_frame=0
pkt_pts_time=9.561656
pkt_size=2283
[/FRAME]
[FRAME]
key_frame=0
pkt_pts_time=9.595000
pkt_size=2139
[/FRAME]
[FRAME]
key_frame=0
pkt_pts_time=9.628322
pkt_size=2013
[/FRAME]
[FRAME]
key_frame=0
pkt_pts_time=9.695000
pkt_size=2475
[/FRAME]
[FRAME]
key_frame=0
pkt_pts_time=9.728322
pkt_size=2084
[/FRAME]
[FRAME]
key_frame=0
pkt_pts_time=9.761656
pkt_size=2135
[/FRAME]
[FRAME]
key_frame=0
pkt_pts_time=9.795000
pkt_size=2287
[/FRAME]
[FRAME]
key_frame=0
pkt_pts_time=9.828322
pkt_size=2280
[/FRAME]
[FRAME]
key_frame=0
pkt_pts_time=9.895000
pkt_size=3202
[/FRAME]
[FRAME]
key_frame=0
pkt_pts_time=9.928322
pkt_size=2740
[/FRAME]
[FRAME]
key_frame=0
pkt_pts_time=9.961656
pkt_size=2778
[/FRAME]
[FRAME]
key_frame=1
pkt_pts_time=9.995000
pkt_size=63966
[/FRAME]
[FRAME]
key_frame=0
pkt_pts_time=10.028322
pkt_size=6251
[/FRAME]
[FRAME]
key_frame=0
pkt_pts_time=10.095000
pkt_size=5365
[/FRAME]
[FRAME]
key_frame=0
pkt_pts_time=10.128322
pkt_size=3814
[/FRAME]
[FRAME]
key_frame=0
pkt_pts_time=10.161656
pkt_size=1705
[/FRAME]
[FRAME]
key_frame=0
pkt_pts_time=10.195000
pkt_size=1637
[/FRAME]
[FRAME]
key_frame=0
pkt_pts_time=10.228322
pkt_size=2434
[/FRAME]
[FRAME]
key_frame=0
pkt_pts_time=10.295000
pkt_size=2584
[/FRAME]
[FRAME]
key_frame=0
pkt_pts_time=10.328322
pkt_size=1069
[/FRAME]
[FRAME]
key_frame=0
pkt_pts_time=10.361656
pkt_size=2480
[/FRAME]
[FRAME]
key_frame=0
pkt_pts_time=10.395000
pkt_size=4051
[/FRAME]
[FRAME]
key_frame=0
pkt_pts_time=10.428322
pkt_size=3188
[/FRAME]
[FRAME]
key_frame=0
pkt_pts_time=10.495000
pkt_size=3876
[/FRAME]
[FRAME]
key_frame=0
pkt_pts_time=10.528322
pkt_size=2892
[/FRAME]
[FRAME]
key_frame=0
pkt_pts_time=10.561656
pkt_size=2822
[/FRAME]
[FRAME]
key_frame=0
pkt_pts_time=10.595000
pkt_size=2711
[/FRAME]
[FRAME]
key_frame=0
pkt_pts_time=10.628322
pkt_size=2715
[/FRAME]
[FRAME]
key_frame=0
pkt_pts_time=10.695000
pkt_size=3010
[/FRAME]
[FRAME]
key_frame=0
pkt_pts_time=10.728322
pkt_size=2632
[/FRAME]
[FRAME]
key_frame=0
pkt_pts_time=10.761656
pkt_size=2441
[/FRAME]
[FRAME]
key_frame=0
pkt_pts_time=10.795000
pkt_size=2281
[/FRAME]
[FRAME]
key_frame=0
pkt_pts_time=10.828322
pkt_size=2328
[/FRAME]
[FRAME]
key_frame=0
pkt_pts_time=10.895000
pkt_size=2619
[/FRAME]
[FRAME]
key_frame=0
pkt_pts_time=10.928322
pkt_size=2321
[/FRAME]
[FRAME]
key_frame=0
pkt_pts_time=10.961656
pkt_size=2224
[/FRAME]
[FRAME]
key_frame=1
pkt_pts_time=10.995000
pkt_size=63763
[/FRAME]
[FRAME]
key_frame=0
pkt_pts_time=11.028322
pkt_size=5466
[/FRAME]
[FRAME]
key_frame=0
pkt_pts_time=11.095000
pkt_size=4050
[/FRAME]
[FRAME]
key_frame=0
pkt_pts_time=11.128322
pkt_size=3035
[/FRAME]
[FRAME]
key_frame=0
pkt_pts_time=11.161656
pkt_size=916
[/FRAME]
[FRAME]
key_frame=0
pkt_pts_time=11.195000
pkt_size=924
[/FRAME]
[FRAME]
key_frame=0
pkt_pts_time=11.228322
pkt_size=1796
[/FRAME]
[FRAME]
key_frame=0
pkt_pts_time=11.295000
pkt_size=2080
[/FRAME]
[FRAME]
key_frame=0
pkt_pts_time=11.328322
pkt_size=947
[/FRAME]
[FRAME]
key_frame=0
pkt_pts_time=11.361656
pkt_size=1971
[/FRAME]
[FRAME]
key_frame=0
pkt_pts_time=11.395000
pkt_size=3438
[/FRAME]
[FRAME]
key_frame=0
pkt_pts_time=11.428322
pkt_size=2925
[/FRAME]
[FRAME]
key_frame=0
pkt_pts_time=11.495000
pkt_size=3628
[/FRAME]
[FRAME]
key_frame=0
pkt_pts_time=11.528322
pkt_size=2997
[/FRAME]
[FRAME]
key_frame=0
pkt_pts_time=11.561656
pkt_size=2956
[/FRAME]
[FRAME]
key_frame=0
pkt_pts_time=11.595000
pkt_size=2956
[/FRAME]
[FRAME]
key_frame=0
pkt_pts_time=11.628322
pkt_size=2804
[/FRAME]
[FRAME]
key_frame=0
pkt_pts_time=11.695000
pkt_size=3332
[/FRAME]
[FRAME]
key_frame=0
pkt_pts_time=11.728322
pkt_size=2693
[/FRAME]
[FRAME]
key_frame=0
pkt_pts_time=11.761656
pkt_size=2673
[/FRAME]
[FRAME]
key_frame=0
pkt_pts_time=11.795000
pkt_size=2490
[/FRAME]
[FRAME]
key_frame=0
pkt_pts_time=11.828322
pkt_size=2341
[/FRAME]
[FRAME]
key_frame=0
pkt_pts_time=11.895000
pkt_size=2804
[/FRAME]
[FRAME]
key_frame=0
pkt_pts_time=11.928322
pkt_size=2335
[/FRAME]
[FRAME]
key_frame=0
pkt_pts_time=11.961656
pkt_size=2393
[/FRAME]
[FRAME]
key_frame=1
pkt_pts_time=11.995000
pkt_size=63735
[/FRAME]
[FRAME]
key_frame=0
pkt_pts_time=12.028322
pkt_size=5862
[/FRAME]
[FRAME]
key_frame=0
pkt_pts_time=12.095000
pkt_size=4616
[/FRAME]
[FRAME]
key_frame=0
pkt_pts_time=12.128322
pkt_size=3566
[/FRAME]
[FRAME]
key_frame=0
pkt_pts_time=12.161656
pkt_size=1350
[/FRAME]
[FRAME]
key_frame=0
pkt_pts_time=12.195000
pkt_size=1373
[/FRAME]
[FRAME]
key_frame=0
pkt_pts_time=12.228322
pkt_size=2266
[/FRAME]
[FRAME]
key_frame=0
pkt_pts_time=12.295000
pkt_size=2641
[/FRAME]
[FRAME]
key_frame=0
pkt_pts_time=12.328322
pkt_size=1020
[/FRAME]
[FRAME]
key_frame=0
pkt_pts_time=12.361656
pkt_size=2195
[/FRAME]
[FRAME]
key_frame=0
pkt_pts_time=12.395000
pkt_size=3562
[/FRAME]
[FRAME]
key_frame=0
pkt_pts_time=12.428322
pkt_size=2978
[/FRAME]
[FRAME]
key_frame=0
pkt_pts_time=12.495000
pkt_size=3301
[/FRAME]
[FRAME]
key_frame=0
pkt_pts_time=12.528322
pkt_size=2690
[/FRAME]
[FRAME]
key_frame=0
pkt_pts_time=12.561656
pkt_size=2455
[/FRAME]
[FRAME]
key_frame=0
pkt_pts_time=12.595000
pkt_size=2431
[/FRAME]
[FRAME]
key_frame=0
pkt_pts_time=12.628322
pkt_size=2284
[/FRAME]
[FRAME]
key_frame=0
pkt_pts_time=12.693322
pkt_size=2551
[/FRAME]
[FRAME]
key_frame=0
pkt_pts_time=12.726656
pkt_size=2067
[/FRAME]
[FRAME]
key_frame=0
pkt_pts_time=12.760000
pkt_size=2088
[/FRAME]
[FRAME]
key_frame=0
pkt_pts_time=12.793322
pkt_size=1981
[/FRAME]
[FRAME]
key_frame=0
pkt_pts_time=12.826656
pkt_size=1964
[/FRAME]
[FRAME]
key_frame=0
pkt_pts_time=12.893333
pkt_size=2342
[/FRAME]
[FRAME]
key_frame=0
pkt_pts_time=12.926656
pkt_size=2048
[/FRAME]
[FRAME]
key_frame=0
pkt_pts_time=12.960000
pkt_size=2103
[/FRAME]
[FRAME]
key_frame=1
pkt_pts_time=12.993322
pkt_size=63607
[/FRAME]
[FRAME]
key_frame=0
pkt_pts_time=13.026656
pkt_size=5490
[/FRAME]
[FRAME]
key_frame=0
pkt_pts_time=13.093333
pkt_size=3739
[/FRAME]
[FRAME]
key_frame=0
pkt_pts_time=13.126656
pkt_size=3011
[/FRAME]
[FRAME]
key_frame=0
pkt_pts_time=13.160000
pkt_size=880
[/FRAME]
[FRAME]
key_frame=0
pkt_pts_time=13.193322
pkt_size=883
[/FRAME]
[FRAME]
key_frame=0
pkt_pts_time=13.226656
pkt_size=1691
[/FRAME]
[FRAME]
key_frame=0
pkt_pts_time=13.293333
pkt_size=1906
[/FRAME]
[FRAME]
key_frame=0
pkt_pts_time=13.326656
pkt_size=759
[/FRAME]
[FRAME]
key_frame=0
pkt_pts_time=13.360000
pkt_size=1773
[/FRAME]
[FRAME]
key_frame=0
pkt_pts_time=13.393322
pkt_size=3029
[/FRAME]
[FRAME]
key_frame=0
pkt_pts_time=13.426656
pkt_size=2534
[/FRAME]
[FRAME]
key_frame=0
pkt_pts_time=13.493333
pkt_size=2971
[/FRAME]
[FRAME]
key_frame=0
pkt_pts_time=13.526656
pkt_size=2650
[/FRAME]
[FRAME]
key_frame=0
pkt_pts_time=13.560000
pkt_size=2464
[/FRAME]
[FRAME]
key_frame=0
pkt_pts_time=13.593322
pkt_size=2420
[/FRAME]
[FRAME]
key_frame=0
pkt_pts_time=13.626656
pkt_size=2732
[/FRAME]
[FRAME]
key_frame=0
pkt_pts_time=13.693333
pkt_size=3399
[/FRAME]
[FRAME]
key_frame=0
pkt_pts_time=13.726656
pkt_size=2707
[/FRAME]
[FRAME]
key_frame=0
pkt_pts_time=13.760000
pkt_size=2776
[/FRAME]
[FRAME]
key_frame=0
pkt_pts_time=13.793322
pkt_size=2564
[/FRAME]
[FRAME]
key_frame=0
pkt_pts_time=13.826656
pkt_size=2537
[/FRAME]
[FRAME]
key_frame=0
pkt_pts_time=13.893333
pkt_size=3043
[/FRAME]
[FRAME]
key_frame=0
pkt_pts_time=13.926656
pkt_size=2410
[/FRAME]
[FRAME]
key_frame=0
pkt_pts_time=13.960000
pkt_size=2476
[/FRAME]
[FRAME]
key_frame=1
pkt_pts_time=13.993322
pkt_size=63461
[/FRAME]
[FRAME]
key_frame=0
pkt_pts_time=14.026656
pkt_size=5756
[/FRAME]
[FRAME]
key_frame=0
pkt_pts_time=14.093333
pkt_size=4238
[/FRAME]
[FRAME]
key_frame=0
pkt_pts_time=14.126656
pkt_size=3427
[/FRAME]
[FRAME]
key_frame=0
pkt_pts_time=14.160000
pkt_size=1272
[/FRAME]
[FRAME]
key_frame=0
pkt_pts_time=14.193322
pkt_size=1296
[/FRAME]
[FRAME]
key_frame=0
pkt_pts_time=14.226656
pkt_size=1995
[/FRAME]
[FRAME]
key_frame=0
pkt_pts_time=14.293333
pkt_size=2171
[/FRAME]
[FRAME]
key_frame=0
pkt_pts_time=14.326656
pkt_size=866
[/FRAME]
[FRAME]
key_frame=0
pkt_pts_time=14.360000
pkt_size=1979
[/FRAME]
[FRAME]
key_frame=0
pkt_pts_time=14.393322
pkt_size=3217
[/FRAME]
[FRAME]
key_frame=0
pkt_pts_time=14.426656
pkt_size=2721
[/FRAME]
[FRAME]
key_frame=0
pkt_pts_time=14.493333
pkt_size=2792
[/FRAME]
[FRAME]
key_frame=0
pkt_pts_time=14.526656
pkt_size=2348
[/FRAME]
[FRAME]
key_frame=0
pkt_pts_time=14.560000
pkt_size=2313
[/FRAME]
[FRAME]
key_frame=0
pkt_pts_time=14.593322
pkt_size=2158
[/FRAME]
[FRAME]
key_frame=0
pkt_pts_time=14.626656
pkt_size=2162
[/FRAME]
[FRAME]
key_frame=0
pkt_pts_time=14.693333
pkt_size=2533
[/FRAME]
[FRAME]
key_frame=0
pkt_pts_time=14.726656
pkt_size=2067
[/FRAME]
[FRAME]
key_frame=0
pkt_pts_time=14.760000
pkt_size=1989
[/FRAME]
[FRAME]
key_frame=0
pkt_pts_time=14.793322
pkt_size=1922
[/FRAME]
[FRAME]
key_frame=0
pkt_pts_time=14.826656
pkt_size=1953
[/FRAME]
[FRAME]
key_frame=0
pkt_pts_time=14.893333
pkt_size=2233
[/FRAME]
[FRAME]
key_frame=0
pkt_pts_time=14.926656
pkt_size=1942
[/FRAME]
[FRAME]
key_frame=0
pkt_pts_time=14.960000
pkt_size=1844
[/FRAME]
[FRAME]
key_frame=1
pkt_pts_time=14.993322
pkt_size=63270
[/FRAME]
[FRAME]
key_frame=0
pkt_pts_time=15.026656
pkt_size=5530
[/FRAME]
[FRAME]
key_frame=0
pkt_pts_time=15.093333
pkt_size=4053
[/FRAME]
[FRAME]
key_frame=0
pkt_pts_time=15.126656
pkt_size=3011
[/FRAME]
[FRAME]
key_frame=0
pkt_pts_time=15.160000
pkt_size=1103
[/FRAME]
[FRAME]
key_frame=0
pkt_pts_time=15.193322
pkt_size=1115
[/FRAME]
[FRAME]
key_frame=0
pkt_pts_time=15.226656
pkt_size=1934
[/FRAME]
[FRAME]
key_frame=0
pkt_pts_time=15.293333
pkt_size=1954
[/FRAME]
[FRAME]
key_frame=0
pkt_pts_time=15.326656
pkt_size=843
[/FRAME]
[FRAME]
key_frame=0
pkt_pts_time=15.360000
pkt_size=1936
[/FRAME]
[FRAME]
key_frame=0
pkt_pts_time=15.393322
pkt_size=3311
[/FRAME]
[FRAME]
key_frame=0
pkt_pts_time=15.426656
pkt_size=2840
[/FRAME]
[FRAME]
key_frame=0
pkt_pts_time=15.493333
pkt_size=3302
[/FRAME]
[FRAME]
key_frame=0
pkt_pts_time=15.526656
pkt_size=2930
[/FRAME]
[FRAME]
key_frame=0
pkt_pts_time=15.560000
pkt_size=2780
[/FRAME]
[FRAME]
key_frame=0
pkt_pts_time=15.593322
pkt_size=2776
[/FRAME]
[FRAME]
key_frame=0
pkt_pts_time=15.626656
pkt_size=2827
[/FRAME]
[FRAME]
key_frame=0
pkt_pts_time=15.693333
pkt_size=3472
[/FRAME]
[FRAME]
key_frame=0
pkt_pts_time=15.726656
pkt_size=2633
[/FRAME]
[FRAME]
key_frame=0
pkt_pts_time=15.760000
pkt_size=2623
[/FRAME]
[FRAME]
key_frame=0
pkt_pts_time=15.793322
pkt_size=2726
[/FRAME]
[FRAME]
key_frame=0
pkt_pts_time=15.826656
pkt_size=2483
[/FRAME]
[FRAME]
key_frame=0
pkt_pts_time=15.893333
pkt_size=3012
[/FRAME]
[FRAME]
key_frame=0
pkt_pts_time=15.926656
pkt_size=2551
[/FRAME]
[FRAME]
key_frame=0
pkt_pts_time=15.960000
pkt_size=2364
[/FRAME]
[FRAME]
key_frame=1
pkt_pts_time=15.993322
pkt_size=63970
[/FRAME]
[FRAME]
key_frame=0
pkt_pts_time=16.026656
pkt_size=5759
[/FRAME]
[FRAME]
key_frame=0
pkt_pts_time=16.093333
pkt_size=4282
[/FRAME]
[FRAME]
key_frame=0
pkt_pts_time=16.126656
pkt_size=3157
[/FRAME]
[FRAME]
key_frame=0
pkt_pts_time=16.160000
pkt_size=1170
[/FRAME]
[FRAME]
key_frame=0
pkt_pts_time=16.193322
pkt_size=1122
[/FRAME]
[FRAME]
key_frame=0
pkt_pts_time=16.226656
pkt_size=1853
[/FRAME]
[FRAME]
key_frame=0
pkt_pts_time=16.293333
pkt_size=2284
[/FRAME]
[FRAME]
key_frame=0
pkt_pts_time=16.326656
pkt_size=854
[/FRAME]
[FRAME]
key_frame=0
pkt_pts_time=16.360000
pkt_size=1978
[/FRAME]
[FRAME]
key_frame=0
pkt_pts_time=16.393322
pkt_size=3296
[/FRAME]
[FRAME]
key_frame=0
pkt_pts_time=16.426656
pkt_size=2641
[/FRAME]
[FRAME]
key_frame=0
pkt_pts_time=16.493333
pkt_size=2925
[/FRAME]
[FRAME]
key_frame=0
pkt_pts_time=16.526656
pkt_size=2293
[/FRAME]
[FRAME]
key_frame=0
pkt_pts_time=16.560000
pkt_size=2018
[/FRAME]
[FRAME]
key_frame=0
pkt_pts_time=16.593322
pkt_size=2090
[/FRAME]
[FRAME]
key_frame=0
pkt_pts_time=16.626656
pkt_size=1963
[/FRAME]
[FRAME]
key_frame=0
pkt_pts_time=16.693333
pkt_size=2392
[/FRAME]
[FRAME]
key_frame=0
pkt_pts_time=16.726656
pkt_size=1987
[/FRAME]
[FRAME]
key_frame=0
pkt_pts_time=16.760000
pkt_size=2003
[/FRAME]
[FRAME]
key_frame=0
pkt_pts_time=16.793322
pkt_size=1940
[/FRAME]
[FRAME]
key_frame=0
pkt_pts_time=16.826656
pkt_size=1836
[/FRAME]
[FRAME]
key_frame=0
pkt_pts_time=16.893333
pkt_size=1989
[/FRAME]
[FRAME]
key_frame=0
pkt_pts_time=16.925000
pkt_size=1836
[/FRAME]
[FRAME]
key_frame=0
pkt_pts_time=16.958322
pkt_size=1752
[/FRAME]
[FRAME]
key_frame=1
pkt_pts_time=16.991656
pkt_size=63504
[/FRAME]
[FRAME]
key_frame=0
pkt_pts_time=17.025000
pkt_size=5473
[/FRAME]
[FRAME]
key_frame=0
pkt_pts_time=17.091656
pkt_size=3954
[/FRAME]
[FRAME]
key_frame=0
pkt_pts_time=17.125000
pkt_size=3014
[/FRAME]
[FRAME]
key_frame=0
pkt_pts_time=17.158322
pkt_size=1000
[/FRAME]
[FRAME]
key_frame=0
pkt_pts_time=17.191656
pkt_size=1106
[/FRAME]
[FRAME]
key_frame=0
pkt_pts_time=17.225000
pkt_size=1752
[/FRAME]
[FRAME]
key_frame=0
pkt_pts_time=17.291656
pkt_size=2008
[/FRAME]
[FRAME]
key_frame=0
pkt_pts_time=17.325000
pkt_size=735
[/FRAME]
[FRAME]
key_frame=0
pkt_pts_time=17.358322
pkt_size=1812
[/FRAME]
[FRAME]
key_frame=0
pkt_pts_time=17.391656
pkt_size=3157
[/FRAME]
[FRAME]
key_frame=0
pkt_pts_time=17.425000
pkt_size=2372
[/FRAME]
[FRAME]
key_frame=0
pkt_pts_time=17.491656
pkt_size=2845
[/FRAME]
[FRAME]
key_frame=0
pkt_pts_time=17.525000
pkt_size=2279
[/FRAME]
[FRAME]
key_frame=0
pkt_pts_time=17.558322
pkt_size=2314
[/FRAME]
[FRAME]
key_frame=0
pkt_pts_time=17.591656
pkt_size=2248
[/FRAME]
[FRAME]
key_frame=0
pkt_pts_time=17.625000
pkt_size=2221
[/FRAME]
[FRAME]
key_frame=0
pkt_pts_time=17.691656
pkt_size=2598
[/FRAME]
[FRAME]
key_frame=0
pkt_pts_time=17.725000
pkt_size=2175
[/FRAME]
[FRAME]
key_frame=0
pkt_pts_time=17.758322
pkt_size=2016
[/FRAME]
[FRAME]
key_frame=0
pkt_pts_time=17.791656
pkt_size=2007
[/FRAME]
[FRAME]
key_frame=0
pkt_pts_time=17.825000
pkt_size=1918
[/FRAME]
[FRAME]
key_frame=0
pkt_pts_time=17.891656
pkt_size=2269
[/FRAME]
[FRAME]
key_frame=0
pkt_pts_time=17.925000
pkt_size=1692
[/FRAME]
[FRAME]
key_frame=0
pkt_pts_time=17.958322
pkt_size=1688
[/FRAME]
[FRAME]
key_frame=1
pkt_pts_time=17.991656
pkt_size=63013
[/FRAME]
[FRAME]
key_frame=0
pkt_pts_time=18.025000
pkt_size=5331
[/FRAME]
[FRAME]
key_frame=0
pkt_pts_time=18.091656
pkt_size=3630
[/FRAME]
[FRAME]
key_frame=0
pkt_pts_time=18.125000
pkt_size=2743
[/FRAME]
[FRAME]
key_frame=0
pkt_pts_time=18.158322
pkt_size=860
[/FRAME]
[FRAME]
key_frame=0
pkt_pts_time=18.191656
pkt_size=814
[/FRAME]
[FRAME]
key_frame=0
pkt_pts_time=18.225000
pkt_size=1631
[/FRAME]
[FRAME]
key_frame=0
pkt_pts_time=18.291656
pkt_size=1840
[/FRAME]
[FRAME]
key_frame=0
pkt_pts_time=18.325000
pkt_size=682
[/FRAME]
[FRAME]
key_frame=0
pkt_pts_time=18.358322
pkt_size=1590
[/FRAME]
[FRAME]
key_frame=0
pkt_pts_time=18.391656
pkt_size=3076
[/FRAME]
[FRAME]
key_frame=0
pkt_pts_time=18.425000
pkt_size=2420
[/FRAME]
[FRAME]
key_frame=0
pkt_pts_time=18.491656
pkt_size=2875
[/FRAME]
[FRAME]
key_frame=0
pkt_pts_time=18.525000
pkt_size=2432
[/FRAME]
[FRAME]
key_frame=0
pkt_pts_time=18.558322
pkt_size=2226
[/FRAME]
[FRAME]
key_frame=0
pkt_pts_time=18.591656
pkt_size=2192
[/FRAME]
[FRAME]
key_frame=0
pkt_pts_time=18.625000
pkt_size=2082
[/FRAME]
[FRAME]
key_frame=0
pkt_pts_time=18.691656
pkt_size=2448
[/FRAME]
[FRAME]
key_frame=0
pkt_pts_time=18.725000
pkt_size=1988
[/FRAME]
[FRAME]
key_frame=0
pkt_pts_time=18.758322
pkt_size=2004
[/FRAME]
[FRAME]
key_frame=0
pkt_pts_time=18.791656
pkt_size=1955
[/FRAME]
[FRAME]
key_frame=0
pkt_pts_time=18.825000
pkt_size=1873
[/FRAME]
[FRAME]
key_frame=0
pkt_pts_time=18.891656
pkt_size=2357
[/FRAME]
[FRAME]
key_frame=0
pkt_pts_time=18.925000
pkt_size=1960
[/FRAME]
[FRAME]
key_frame=0
pkt_pts_time=18.958322
pkt_size=2144
[/FRAME]
[FRAME]
key_frame=1
pkt_pts_time=18.991656
pkt_size=63750
[/FRAME]
[FRAME]
key_frame=0
pkt_pts_time=19.025000
pkt_size=5905
[/FRAME]
[FRAME]
key_frame=0
pkt_pts_time=19.091656
pkt_size=4454
[/FRAME]
[FRAME]
key_frame=0
pkt_pts_time=19.125000
pkt_size=3533
[/FRAME]
[FRAME]
key_frame=0
pkt_pts_time=19.158322
pkt_size=1250
[/FRAME]
[FRAME]
key_frame=0
pkt_pts_time=19.191656
pkt_size=1391
[/FRAME]
[FRAME]
key_frame=0
pkt_pts_time=19.225000
pkt_size=2237
[/FRAME]
[FRAME]
key_frame=0
pkt_pts_time=19.291656
pkt_size=2496
[/FRAME]
[FRAME]
key_frame=0
pkt_pts_time=19.325000
pkt_size=1047
[/FRAME]
[FRAME]
key_frame=0
pkt_pts_time=19.358322
pkt_size=2195
[/FRAME]
[FRAME]
key_frame=0
pkt_pts_time=19.391656
pkt_size=3568
[/FRAME]
[FRAME]
key_frame=0
pkt_pts_time=19.425000
pkt_size=2950
[/FRAME]
[FRAME]
key_frame=0
pkt_pts_time=19.491656
pkt_size=3317
[/FRAME]
[FRAME]
key_frame=0
pkt_pts_time=19.525000
pkt_size=2586
[/FRAME]
[FRAME]
key_frame=0
pkt_pts_time=19.558322
pkt_size=2348
[/FRAME]
[FRAME]
key_frame=0
pkt_pts_time=19.591656
pkt_size=2307
[/FRAME]
[FRAME]
key_frame=0
pkt_pts_time=19.625000
pkt_size=2337
[/FRAME]
[FRAME]
key_frame=0
pkt_pts_time=19.691656
pkt_size=2760
[/FRAME]
[FRAME]
key_frame=0
pkt_pts_time=19.725000
pkt_size=2349
[/FRAME]
[FRAME]
key_frame=0
pkt_pts_time=19.758322
pkt_size=2147
[/FRAME]
[FRAME]
key_frame=0
pkt_pts_time=19.791656
pkt_size=2033
[/FRAME]
[FRAME]
key_frame=0
pkt_pts_time=19.825000
pkt_size=1917
[/FRAME]
[FRAME]
key_frame=0
pkt_pts_time=19.891656
pkt_size=2427
[/FRAME]
[FRAME]
key_frame=0
pkt_pts_time=19.925000
pkt_size=1847
[/FRAME]
[FRAME]
key_frame=0
pkt_pts_time=19.958322
pkt_size=1939
[/FRAME]
[FRAME]
key_frame=1
pkt_pts_time=19.991656
pkt_size=63699
[/FRAME]
[FRAME]
key_frame=0
pkt_pts_time=20.025000
pkt_size=5420
[/FRAME]
[FRAME]
key_frame=0
pkt_pts_time=20.091656
pkt_size=3816
[/FRAME]
[FRAME]
key_frame=0
pkt_pts_time=20.125000
pkt_size=2776
[/FRAME]
[FRAME]
key_frame=0
pkt_pts_time=20.158322
pkt_size=779
[/FRAME]
[FRAME]
key_frame=0
pkt_pts_time=20.191656
pkt_size=789
[/FRAME]
[FRAME]
key_frame=0
pkt_pts_time=20.225000
pkt_size=1591
[/FRAME]
[FRAME]
key_frame=0
pkt_pts_time=20.291656
pkt_size=1430
[/FRAME]
[FRAME]
key_frame=0
pkt_pts_time=20.325000
pkt_size=455
[/FRAME]
[FRAME]
key_frame=0
pkt_pts_time=20.358322
pkt_size=1433
[/FRAME]
[FRAME]
key_frame=0
pkt_pts_time=20.391656
pkt_size=2866
[/FRAME]
[FRAME]
key_frame=0
pkt_pts_time=20.425000
pkt_size=2313
[/FRAME]
[FRAME]
key_frame=0
pkt_pts_time=20.491656
pkt_size=2345
[/FRAME]
[FRAME]
key_frame=0
pkt_pts_time=20.525000
pkt_size=1968
[/FRAME]
[FRAME]
key_frame=0
pkt_pts_time=20.558322
pkt_size=1807
[/FRAME]
[FRAME]
key_frame=0
pkt_pts_time=20.591656
pkt_size=1832
[/FRAME]
[FRAME]
key_frame=0
pkt_pts_time=20.625000
pkt_size=1768
[/FRAME]
[FRAME]
key_frame=0
pkt_pts_time=20.691656
pkt_size=1899
[/FRAME]
[FRAME]
key_frame=0
pkt_pts_time=20.725000
pkt_size=1650
[/FRAME]
[FRAME]
key_frame=0
pkt_pts_time=20.758322
pkt_size=1601
[/FRAME]
[FRAME]
key_frame=0
pkt_pts_time=20.791656
pkt_size=1433
[/FRAME]
[FRAME]
key_frame=0
pkt_pts_time=20.825000
pkt_size=1456
[/FRAME]
[FRAME]
key_frame=0
pkt_pts_time=20.891656
pkt_size=1716
[/FRAME]
[FRAME]
key_frame=0
pkt_pts_time=20.925000
pkt_size=1484
[/FRAME]
[FRAME]
key_frame=0
pkt_pts_time=20.958322
pkt_size=1402
[/FRAME]
[FRAME]
key_frame=1
pkt_pts_time=20.991656
pkt_size=63417
[/FRAME]
[FRAME]
key_frame=0
pkt_pts_time=21.025000
pkt_size=5177
[/FRAME]
[FRAME]
key_frame=0
pkt_pts_time=21.091656
pkt_size=3347
[/FRAME]
[FRAME]
key_frame=0
pkt_pts_time=21.125000
pkt_size=2467
[/FRAME]
[FRAME]
key_frame=0
pkt_pts_time=21.158322
pkt_size=603
[/FRAME]
[FRAME]
key_frame=0
pkt_pts_time=21.190000
pkt_size=653
[/FRAME]
[FRAME]
key_frame=0
pkt_pts_time=21.223322
pkt_size=1449
[/FRAME]
[FRAME]
key_frame=0
pkt_pts_time=21.290000
pkt_size=1935
[/FRAME]
[FRAME]
key_frame=0
pkt_pts_time=21.323322
pkt_size=852
[/FRAME]
[FRAME]
key_frame=0
pkt_pts_time=21.356656
pkt_size=2011
[/FRAME]
[FRAME]
key_frame=0
pkt_pts_time=21.390000
pkt_size=3579
[/FRAME]
[FRAME]
key_frame=0
pkt_pts_time=21.423322
pkt_size=2789
[/FRAME]
[FRAME]
key_frame=0
pkt_pts_time=21.490000
pkt_size=3328
[/FRAME]
[FRAME]
key_frame=0
pkt_pts_time=21.523322
pkt_size=2726
[/FRAME]
[FRAME]
key_frame=0
pkt_pts_time=21.556656
pkt_size=2551
[/FRAME]
[FRAME]
key_frame=0
pkt_pts_time=21.623333
pkt_size=3030
[/FRAME]
[FRAME]
key_frame=0
pkt_pts_time=21.656656
pkt_size=2501
[/FRAME]
[FRAME]
key_frame=0
pkt_pts_time=21.690000
pkt_size=2371
[/FRAME]
[FRAME]
key_frame=0
pkt_pts_time=21.723322
pkt_size=2360
[/FRAME]
[FRAME]
key_frame=0
pkt_pts_time=21.756656
pkt_size=2228
[/FRAME]
[FRAME]
key_frame=0
pkt_pts_time=21.790000
pkt_size=2109
[/FRAME]
[FRAME]
key_frame=0
pkt_pts_time=21.823322
pkt_size=2258
[/FRAME]
[FRAME]
key_frame=0
pkt_pts_time=21.890000
pkt_size=2737
[/FRAME]
[FRAME]
key_frame=0
pkt_pts_time=21.923322
pkt_size=2369
[/FRAME]
[FRAME]
key_frame=0
pkt_pts_time=21.956656
pkt_size=2231
[/FRAME]
[FRAME]
key_frame=1
pkt_pts_time=21.990000
pkt_size=63480
[/FRAME]
[FRAME]
key_frame=0
pkt_pts_time=22.023322
pkt_size=5706
[/FRAME]
[FRAME]
key_frame=0
pkt_pts_time=22.090000
pkt_size=4276
[/FRAME]
[FRAME]
key_frame=0
pkt_pts_time=22.123322
pkt_size=3148
[/FRAME]
[FRAME]
key_frame=0
pkt_pts_time=22.156656
pkt_size=1116
[/FRAME]
[FRAME]
key_frame=0
pkt_pts_time=22.190000
pkt_size=1235
[/FRAME]
[FRAME]
key_frame=0
pkt_pts_time=22.223322
pkt_size=1909
[/FRAME]
[FRAME]
key_frame=0
pkt_pts_time=22.290000
pkt_size=2107
[/FRAME]
[FRAME]
key_frame=0
pkt_pts_time=22.323322
pkt_size=777
[/FRAME]
[FRAME]
key_frame=0
pkt_pts_time=22.356656
pkt_size=1802
[/FRAME]
[FRAME]
key_frame=0
pkt_pts_time=22.390000
pkt_size=3163
[/FRAME]
[FRAME]
key_frame=0
pkt_pts_time=22.423322
pkt_size=2464
[/FRAME]
[FRAME]
key_frame=0
pkt_pts_time=22.490000
pkt_size=2837
[/FRAME]
[FRAME]
key_frame=0
pkt_pts_time=22.523322
pkt_size=2325
[/FRAME]
[FRAME]
key_frame=0
pkt_pts_time=22.556656
pkt_size=2309
[/FRAME]
[FRAME]
key_frame=0
pkt_pts_time=22.590000
pkt_size=1967
[/FRAME]
[FRAME]
key_frame=0
pkt_pts_time=22.623322
pkt_size=1860
[/FRAME]
[FRAME]
key_frame=0
pkt_pts_time=22.690000
pkt_size=2395
[/FRAME]
[FRAME]
key_frame=0
pkt_pts_time=22.723322
pkt_size=2047
[/FRAME]
[FRAME]
key_frame=0
pkt_pts_time=22.756656
pkt_size=1880
[/FRAME]
[FRAME]
key_frame=0
pkt_pts_time=22.790000
pkt_size=1977
[/FRAME]
[FRAME]
key_frame=0
pkt_pts_time=22.823322
pkt_size=1829
[/FRAME]
[FRAME]
key_frame=0
pkt_pts_time=22.890000
pkt_size=2287
[/FRAME]
[FRAME]
key_frame=0
pkt_pts_time=22.923322
pkt_size=1835
[/FRAME]
[FRAME]
key_frame=0
pkt_pts_time=22.956656
pkt_size=1804
[/FRAME]
[FRAME]
key_frame=1
pkt_pts_time=22.990000
pkt_size=63280
[/FRAME]
[FRAME]
key_frame=0
pkt_pts_time=23.023322
pkt_size=5424
[/FRAME]
[FRAME]
key_frame=0
pkt_pts_time=23.090000
pkt_size=4114
[/FRAME]
[FRAME]
key_frame=0
pkt_pts_time=23.123322
pkt_size=3177
[/FRAME]
[FRAME]
key_frame=0
pkt_pts_time=23.156656
pkt_size=1239
[/FRAME]
[FRAME]
key_frame=0
pkt_pts_time=23.190000
pkt_size=1160
[/FRAME]
[FRAME]
key_frame=0
pkt_pts_time=23.223322
pkt_size=1959
[/FRAME]
[FRAME]
key_frame=0
pkt_pts_time=23.290000
pkt_size=2180
[/FRAME]
[FRAME]
key_frame=0
pkt_pts_time=23.323322
pkt_size=841
[/FRAME]
[FRAME]
key_frame=0
pkt_pts_time=23.356656
pkt_size=1927
[/FRAME]
[FRAME]
key_frame=0
pkt_pts_time=23.390000
pkt_size=3421
[/FRAME]
[FRAME]
key_frame=0
pkt_pts_time=23.423322
pkt_size=2662
[/FRAME]
[FRAME]
key_frame=0
pkt_pts_time=23.490000
pkt_size=2984
[/FRAME]
[FRAME]
key_frame=0
pkt_pts_time=23.523322
pkt_size=2407
[/FRAME]
[FRAME]
key_frame=0
pkt_pts_time=23.556656
pkt_size=2223
[/FRAME]
[FRAME]
key_frame=0
pkt_pts_time=23.590000
pkt_size=2069
[/FRAME]
[FRAME]
key_frame=0
pkt_pts_time=23.623322
pkt_size=2069
[/FRAME]
[FRAME]
key_frame=0
pkt_pts_time=23.690000
pkt_size=2486
[/FRAME]
[FRAME]
key_frame=0
pkt_pts_time=23.723322
pkt_size=1959
[/FRAME]
[FRAME]
key_frame=0
pkt_pts_time=23.756656
pkt_size=1852
[/FRAME]
[FRAME]
key_frame=0
pkt_pts_time=23.790000
pkt_size=1946
[/FRAME]
[FRAME]
key_frame=0
pkt_pts_time=23.823322
pkt_size=1909
[/FRAME]
[FRAME]
key_frame=0
pkt_pts_time=23.890000
pkt_size=2073
[/FRAME]
[FRAME]
key_frame=0
pkt_pts_time=23.923322
pkt_size=1681
[/FRAME]
[FRAME]
key_frame=0
pkt_pts_time=23.956656
pkt_size=1794
[/FRAME]
[FRAME]
key_frame=1
pkt_pts_time=23.990000
pkt_size=63662
[/FRAME]
[FRAME]
key_frame=0
pkt_pts_time=24.023322
pkt_size=5288
[/FRAME]
[FRAME]
key_frame=0
pkt_pts_time=24.090000
pkt_size=3682
[/FRAME]
[FRAME]
key_frame=0
pkt_pts_time=24.123322
pkt_size=2617
[/FRAME]
[FRAME]
key_frame=0
pkt_pts_time=24.156656
pkt_size=863
[/FRAME]
[FRAME]
key_frame=0
pkt_pts_time=24.190000
pkt_size=834
[/FRAME]
[FRAME]
key_frame=0
pkt_pts_time=24.223322
pkt_size=1514
[/FRAME]
[FRAME]
key_frame=0
pkt_pts_time=24.290000
pkt_size=1663
[/FRAME]
[FRAME]
key_frame=0
pkt_pts_time=24.323322
pkt_size=649
[/FRAME]
[FRAME]
key_frame=0
pkt_pts_time=24.356656
pkt_size=1466
[/FRAME]
[FRAME]
key_frame=0
pkt_pts_time=24.390000
pkt_size=2867
[/FRAME]
[FRAME]
key_frame=0
pkt_pts_time=24.423322
pkt_size=2420
[/FRAME]
[FRAME]
key_frame=0
pkt_pts_time=24.490000
pkt_size=2494
[/FRAME]
[FRAME]
key_frame=0
pkt_pts_time=24.523322
pkt_size=2016
[/FRAME]
[FRAME]
key_frame=0
pkt_pts_time=24.556656
pkt_size=1803
[/FRAME]
[FRAME]
key_frame=0
pkt_pts_time=24.590000
pkt_size=1845
[/FRAME]
[FRAME]
key_frame=0
pkt_pts_time=24.623322
pkt_size=1842
[/FRAME]
[FRAME]
key_frame=0
pkt_pts_time=24.690000
pkt_size=2152
[/FRAME]
[FRAME]
key_frame=0
pkt_pts_time=24.723322
pkt_size=1838
[/FRAME]
[FRAME]
key_frame=0
pkt_pts_time=24.756656
pkt_size=1833
[/FRAME]
[FRAME]
key_frame=0
pkt_pts_time=24.790000
pkt_size=1815
[/FRAME]
[FRAME]
key_frame=0
pkt_pts_time=24.823322
pkt_size=1800
[/FRAME]
[FRAME]
key_frame=0
pkt_pts_time=24.890000
pkt_size=2088
[/FRAME]
[FRAME]
key_frame=0
pkt_pts_time=24.923322
pkt_size=1794
[/FRAME]
[FRAME]
key_frame=0
pkt_pts_time=24.956656
pkt_size=1763
[/FRAME]
[FRAME]
key_frame=1
pkt_pts_time=24.990000
pkt_size=63832
[/FRAME]
[FRAME]
key_frame=0
pkt_pts_time=25.023322
pkt_size=5392
[/FRAME]
[FRAME]
key_frame=0
pkt_pts_time=25.090000
pkt_size=3906
[/FRAME]
[FRAME]
key_frame=0
pkt_pts_time=25.123322
pkt_size=3118
[/FRAME]
[FRAME]
key_frame=0
pkt_pts_time=25.156656
pkt_size=986
[/FRAME]
[FRAME]
key_frame=0
pkt_pts_time=25.190000
pkt_size=1066
[/FRAME]
[FRAME]
key_frame=0
pkt_pts_time=25.223322
pkt_size=1702
[/FRAME]
[FRAME]
key_frame=0
pkt_pts_time=25.290000
pkt_size=1871
[/FRAME]
[FRAME]
key_frame=0
pkt_pts_time=25.323322
pkt_size=777
[/FRAME]
[FRAME]
key_frame=0
pkt_pts_time=25.356656
pkt_size=1686
[/FRAME]
[FRAME]
key_frame=0
pkt_pts_time=25.390000
pkt_size=3071
[/FRAME]
[FRAME]
key_frame=0
pkt_pts_time=25.423322
pkt_size=2486
[/FRAME]
[FRAME]
key_frame=0
pkt_pts_time=25.490000
pkt_size=2669
[/FRAME]
[FRAME]
key_frame=0
pkt_pts_time=25.521656
pkt_size=2272
[/FRAME]
[FRAME]
key_frame=0
pkt_pts_time=25.555000
pkt_size=2055
[/FRAME]
[FRAME]
key_frame=0
pkt_pts_time=25.588322
pkt_size=2124
[/FRAME]
[FRAME]
key_frame=0
pkt_pts_time=25.621656
pkt_size=2110
[/FRAME]
[FRAME]
key_frame=0
pkt_pts_time=25.688333
pkt_size=2299
[/FRAME]
[FRAME]
key_frame=0
pkt_pts_time=25.721656
pkt_size=1964
[/FRAME]
[FRAME]
key_frame=0
pkt_pts_time=25.755000
pkt_size=2100
[/FRAME]
[FRAME]
key_frame=0
pkt_pts_time=25.788322
pkt_size=1896
[/FRAME]
[FRAME]
key_frame=0
pkt_pts_time=25.821656
pkt_size=1839
[/FRAME]
[FRAME]
key_frame=0
pkt_pts_time=25.888333
pkt_size=2101
[/FRAME]
[FRAME]
key_frame=0
pkt_pts_time=25.921656
pkt_size=1776
[/FRAME]
[FRAME]
key_frame=0
pkt_pts_time=25.955000
pkt_size=1712
[/FRAME]
[FRAME]
key_frame=1
pkt_pts_time=25.988322
pkt_size=63629
[/FRAME]
[FRAME]
key_frame=0
pkt_pts_time=26.021656
pkt_size=5351
[/FRAME]
[FRAME]
key_frame=0
pkt_pts_time=26.088333
pkt_size=3770
[/FRAME]
[FRAME]
key_frame=0
pkt_pts_time=26.121656
pkt_size=2900
[/FRAME]
[FRAME]
key_frame=0
pkt_pts_time=26.155000
pkt_size=945
[/FRAME]
[FRAME]
key_frame=0
pkt_pts_time=26.188322
pkt_size=994
[/FRAME]
[FRAME]
key_frame=0
pkt_pts_time=26.221656
pkt_size=1725
[/FRAME]
[FRAME]
key_frame=0
pkt_pts_time=26.288333
pkt_size=1947
[/FRAME]
[FRAME]
key_frame=0
pkt_pts_time=26.321656
pkt_size=746
[/FRAME]
[FRAME]
key_frame=0
pkt_pts_time=26.355000
pkt_size=1619
[/FRAME]
[FRAME]
key_frame=0
pkt_pts_time=26.388322
pkt_size=3144
[/FRAME]
[FRAME]
key_frame=0
pkt_pts_time=26.421656
pkt_size=2667
[/FRAME]
[FRAME]
key_frame=0
pkt_pts_time=26.488333
pkt_size=2882
[/FRAME]
[FRAME]
key_frame=0
pkt_pts_time=26.521656
pkt_size=2304
[/FRAME]
[FRAME]
key_frame=0
pkt_pts_time=26.555000
pkt_size=2373
[/FRAME]
[FRAME]
key_frame=0
pkt_pts_time=26.588322
pkt_size=2180
[/FRAME]
[FRAME]
key_frame=0
pkt_pts_time=26.621656
pkt_size=2087
[/FRAME]
[FRAME]
key_frame=0
pkt_pts_time=26.688333
pkt_size=2505
[/FRAME]
[FRAME]
key_frame=0
pkt_pts_time=26.721656
pkt_size=2097
[/FRAME]
[FRAME]
key_frame=0
pkt_pts_time=26.755000
pkt_size=2120
[/FRAME]
[FRAME]
key_frame=0
pkt_pts_time=26.788322
pkt_size=2016
[/FRAME]
[FRAME]
key_frame=0
pkt_pts_time=26.821656
pkt_size=1875
[/FRAME]
[FRAME]
key_frame=0
pkt_pts_time=26.888333
pkt_size=2255
[/FRAME]
[FRAME]
key_frame=0
pkt_pts_time=26.921656
pkt_size=1985
[/FRAME]
[FRAME]
key_frame=0
pkt_pts_time=26.955000
pkt_size=2032
[/FRAME]
[FRAME]
key_frame=1
pkt_pts_time=26.988322
pkt_size=63656
[/FRAME]
[FRAME]
key_frame=0
pkt_pts_time=27.021656
pkt_size=5675
[/FRAME]
[FRAME]
key_frame=0
pkt_pts_time=27.088333
pkt_size=3966
[/FRAME]
[FRAME]
key_frame=0
pkt_pts_time=27.121656
pkt_size=3111
[/FRAME]
[FRAME]
key_frame=0
pkt_pts_time=27.155000
pkt_size=979
[/FRAME]
[FRAME]
key_frame=0
pkt_pts_time=27.188322
pkt_size=1140
[/FRAME]
[FRAME]
key_frame=0
pkt_pts_time=27.221656
pkt_size=1942
[/FRAME]
[FRAME]
key_frame=0
pkt_pts_time=27.288333
pkt_size=2054
[/FRAME]
[FRAME]
key_frame=0
pkt_pts_time=27.321656
pkt_size=800
[/FRAME]
[FRAME]
key_frame=0
pkt_pts_time=27.355000
pkt_size=1810
[/FRAME]
[FRAME]
key_frame=0
pkt_pts_time=27.388322
pkt_size=3356
[/FRAME]
[FRAME]
key_frame=0
pkt_pts_time=27.421656
pkt_size=2616
[/FRAME]
[FRAME]
key_frame=0
pkt_pts_time=27.488333
pkt_size=2961
[/FRAME]
[FRAME]
key_frame=0
pkt_pts_time=27.521656
pkt_size=2421
[/FRAME]
[FRAME]
key_frame=0
pkt_pts_time=27.555000
pkt_size=2405
[/FRAME]
[FRAME]
key_frame=0
pkt_pts_time=27.588322
pkt_size=2164
[/FRAME]
[FRAME]
key_frame=0
pkt_pts_time=27.621656
pkt_size=2128
[/FRAME]
[FRAME]
key_frame=0
pkt_pts_time=27.688333
pkt_size=2450
[/FRAME]
[FRAME]
key_frame=0
pkt_pts_time=27.721656
pkt_size=2056
[/FRAME]
[FRAME]
key_frame=0
pkt_pts_time=27.755000
pkt_size=1947
[/FRAME]
[FRAME]
key_frame=0
pkt_pts_time=27.788322
pkt_size=1817
[/FRAME]
[FRAME]
key_frame=0
pkt_pts_time=27.821656
pkt_size=1797
[/FRAME]
[FRAME]
key_frame=0
pkt_pts_time=27.888333
pkt_size=1984
[/FRAME]
[FRAME]
key_frame=0
pkt_pts_time=27.921656
pkt_size=1778
[/FRAME]
[FRAME]
key_frame=0
pkt_pts_time=27.955000
pkt_size=1774
[/FRAME]
[FRAME]
key_frame=1
pkt_pts_time=27.988322
pkt_size=63480
[/FRAME]
[FRAME]
key_frame=0
pkt_pts_time=28.021656
pkt_size=5513
[/FRAME]
[FRAME]
key_frame=0
pkt_pts_time=28.088333
pkt_size=3895
[/FRAME]
[FRAME]
key_frame=0
pkt_pts_time=28.121656
pkt_size=2905
[/FRAME]
[FRAME]
key_frame=0
pkt_pts_time=28.155000
pkt_size=1147
[/FRAME]
[FRAME]
key_frame=0
pkt_pts_time=28.188322
pkt_size=1104
[/FRAME]
[FRAME]
key_frame=0
pkt_pts_time=28.221656
pkt_size=1923
[/FRAME]
[FRAME]
key_frame=0
pkt_pts_time=28.288333
pkt_size=2300
[/FRAME]
[FRAME]
key_frame=0
pkt_pts_time=28.321656
pkt_size=939
[/FRAME]
[FRAME]
key_frame=0
pkt_pts_time=28.355000
pkt_size=2060
[/FRAME]
[FRAME]
key_frame=0
pkt_pts_time=28.388322
pkt_size=3421
[/FRAME]
[FRAME]
key_frame=0
pkt_pts_time=28.421656
pkt_size=2851
[/FRAME]
[FRAME]
key_frame=0
pkt_pts_time=28.488333
pkt_size=3412
[/FRAME]
[FRAME]
key_frame=0
pkt_pts_time=28.521656
pkt_size=2743
[/FRAME]
[FRAME]
key_frame=0
pkt_pts_time=28.555000
pkt_size=2708
[/FRAME]
[FRAME]
key_frame=0
pkt_pts_time=28.588322
pkt_size=2472
[/FRAME]
[FRAME]
key_frame=0
pkt_pts_time=28.621656
pkt_size=2391
[/FRAME]
[FRAME]
key_frame=0
pkt_pts_time=28.688333
pkt_size=2662
[/FRAME]
[FRAME]
key_frame=0
pkt_pts_time=28.721656
pkt_size=2234
[/FRAME]
[FRAME]
key_frame=0
pkt_pts_time=28.755000
pkt_size=2201
[/FRAME]
[FRAME]
key_frame=0
pkt_pts_time=28.788322
pkt_size=2174
[/FRAME]
[FRAME]
key_frame=0
pkt_pts_time=28.821656
pkt_size=1966
[/FRAME]
[FRAME]
key_frame=0
pkt_pts_time=28.888333
pkt_size=2521
[/FRAME]
[FRAME]
key_frame=0
pkt_pts_time=28.921656
pkt_size=2143
[/FRAME]
[FRAME]
key_frame=0
pkt_pts_time=28.955000
pkt_size=2122
[/FRAME]
[FRAME]
key_frame=1
pkt_pts_time=28.988322
pkt_size=63681
[/FRAME]
[FRAME]
key_frame=0
pkt_pts_time=29.021656
pkt_size=5544
[/FRAME]
[FRAME]
key_frame=0
pkt_pts_time=29.088333
pkt_size=4059
[/FRAME]
[FRAME]
key_frame=0
pkt_pts_time=29.121656
pkt_size=2942
[/FRAME]
[FRAME]
key_frame=0
pkt_pts_time=29.155000
pkt_size=1066
[/FRAME]
[FRAME]
key_frame=0
pkt_pts_time=29.188322
pkt_size=1058
[/FRAME]
[FRAME]
key_frame=0
pkt_pts_time=29.221656
pkt_size=1714
[/FRAME]
[FRAME]
key_frame=0
pkt_pts_time=29.288333
pkt_size=1930
[/FRAME]
[FRAME]
key_frame=0
pkt_pts_time=29.321656
pkt_size=727
[/FRAME]
[FRAME]
key_frame=0
pkt_pts_time=29.355000
pkt_size=1689
[/FRAME]
[FRAME]
key_frame=0
pkt_pts_time=29.388322
pkt_size=2937
[/FRAME]
[FRAME]
key_frame=0
pkt_pts_time=29.421656
pkt_size=2344
[/FRAME]
[FRAME]
key_frame=0
pkt_pts_time=29.488333
pkt_size=2794
[/FRAME]
[FRAME]
key_frame=0
pkt_pts_time=29.521656
pkt_size=2182
[/FRAME]
[FRAME]
key_frame=0
pkt_pts_time=29.555000
pkt_size=2028
[/FRAME]
[FRAME]
key_frame=0
pkt_pts_time=29.588322
pkt_size=2099
[/FRAME]
[FRAME]
key_frame=0
pkt_pts_time=29.621656
pkt_size=1988
[/FRAME]
[FRAME]
key_frame=0
pkt_pts_time=29.688333
pkt_size=2199
[/FRAME]
[FRAME]
key_frame=0
pkt_pts_time=29.720000
pkt_size=1832
[/FRAME]
[FRAME]
key_frame=0
pkt_pts_time=29.753322
pkt_size=1785
[/FRAME]
[FRAME]
key_frame=0
pkt_pts_time=29.786656
pkt_size=1825
[/FRAME]
[FRAME]
key_frame=0
pkt_pts_time=29.820000
pkt_size=1774
[/FRAME]
[FRAME]
key_frame=0
pkt_pts_time=29.886656
pkt_size=2087
[/FRAME]
[FRAME]
key_frame=0
pkt_pts_time=29.920000
pkt_size=1766
[/FRAME]
[FRAME]
key_frame=0
pkt_pts_time=29.953322
pkt_size=1658
[/FRAME]
[FRAME]
key_frame=1
pkt_pts_time=29.986656
pkt_size=63517
[/FRAME]
[FRAME]
key_frame=0
pkt_pts_time=30.020000
pkt_size=5365
[/FRAME]
[FRAME]
key_frame=0
pkt_pts_time=30.086656
pkt_size=3550
[/FRAME]
[FRAME]
key_frame=0
pkt_pts_time=30.120000
pkt_size=2732
[/FRAME]
[FRAME]
key_frame=0
pkt_pts_time=30.153322
pkt_size=815
[/FRAME]
[FRAME]
key_frame=0
pkt_pts_time=30.186656
pkt_size=868
[/FRAME]
[FRAME]
key_frame=0
pkt_pts_time=30.220000
pkt_size=1417
[/FRAME]
[FRAME]
key_frame=0
pkt_pts_time=30.286656
pkt_size=1651
[/FRAME]
